<?xml version="1.0" encoding="UTF-8"?>
<svg xmlns="http://www.w3.org/2000/svg" xmlns:xlink="http://www.w3.org/1999/xlink" width="224.87999pt" height="112.499997pt" viewBox="0 0 224.87999 112.499997" version="1.2">
<defs>
<clipPath id="clip1">
  <path d="M 23.421875 17 L 111 17 L 111 112 L 23.421875 112 Z M 23.421875 17 "/>
</clipPath>
<clipPath id="clip2">
  <path d="M 23.421875 17 L 76 17 L 76 79 L 23.421875 79 Z M 23.421875 17 "/>
</clipPath>
<clipPath id="clip3">
  <path d="M 23.421875 17 L 77 17 L 77 79 L 23.421875 79 Z M 23.421875 17 "/>
</clipPath>
<clipPath id="clip4">
  <path d="M 112 17 L 201.132812 17 L 201.132812 112 L 112 112 Z M 112 17 "/>
</clipPath>
<clipPath id="clip5">
  <path d="M 146 15 L 201.132812 15 L 201.132812 76 L 146 76 Z M 146 15 "/>
</clipPath>
</defs>
<g id="surface1">
<g clip-path="url(#clip1)" clip-rule="nonzero">
<path style=" stroke:none;fill-rule:nonzero;fill:rgb(76.078796%,79.60968%,82.348633%);fill-opacity:1;" d="M 44.992188 81.164062 C 34.753906 78.785156 28.390625 68.554688 30.765625 58.296875 C 33.140625 48.039062 43.351562 41.660156 53.589844 44.042969 Z M 108.726562 30.296875 L 87.714844 19.519531 C 80.722656 17.761719 73.40625 17.234375 66.621094 18.125 C 62.558594 18.660156 59.089844 20.304688 58.234375 24 L 55.140625 37.363281 C 41.210938 34.125 27.328125 42.796875 24.097656 56.746094 C 20.867188 70.699219 29.519531 84.605469 43.445312 87.847656 L 42.15625 93.417969 C 41.300781 97.105469 43.695312 100.117188 47.105469 102.386719 C 57.933594 109.597656 72.75 113.042969 85.640625 111.34375 C 89.699219 110.808594 93.171875 109.164062 94.027344 105.472656 L 110.105469 36.058594 C 110.605469 33.902344 109.996094 31.976562 108.726562 30.296875 "/>
</g>
<path style=" stroke:none;fill-rule:nonzero;fill:rgb(100%,61.959839%,36.859131%);fill-opacity:1;" d="M 107.289062 34.726562 L 92.355469 99.214844 C 91.59375 102.492188 88.519531 104.277344 84.90625 104.757812 C 73.453125 106.265625 60.28125 103.203125 50.660156 96.792969 C 47.625 94.773438 45.648438 91.816406 46.410156 88.53125 L 56.726562 43.988281 C 57.199219 41.9375 58.328125 40.449219 61.808594 38.910156 C 66.726562 37.089844 70.824219 34.664062 74.359375 32.019531 L 74.355469 32.019531 C 85.753906 36.316406 101.300781 38.285156 107.289062 34.726562 "/>
<path style=" stroke:none;fill-rule:nonzero;fill:rgb(100%,100%,100%);fill-opacity:1;" d="M 106.652344 50.976562 C 94.332031 53.589844 80.992188 50.488281 68.167969 45.160156 C 67.347656 44.96875 66.839844 44.152344 67.027344 43.332031 L 67.03125 43.332031 C 67.222656 42.511719 68.039062 42 68.855469 42.191406 C 81.679688 47.519531 95.015625 50.621094 107.335938 48.003906 L 106.652344 50.976562 "/>
<path style=" stroke:none;fill-rule:nonzero;fill:rgb(100%,100%,100%);fill-opacity:1;" d="M 81.339844 59.101562 C 81.480469 58.484375 82.097656 58.105469 82.710938 58.242188 C 83.324219 58.386719 83.703125 59.003906 83.5625 59.617188 L 75.828125 93.019531 C 75.066406 96.304688 71.796875 98.347656 68.523438 97.585938 C 65.246094 96.824219 63.210938 93.554688 63.96875 90.269531 L 71.707031 56.859375 C 71.847656 56.246094 72.460938 55.863281 73.074219 56.003906 C 73.691406 56.148438 74.074219 56.761719 73.929688 57.378906 L 66.195312 90.789062 C 65.71875 92.835938 66.988281 94.878906 69.035156 95.359375 C 71.085938 95.832031 73.125 94.558594 73.605469 92.511719 L 81.339844 59.101562 "/>
<path style=" stroke:none;fill-rule:nonzero;fill:rgb(100%,100%,100%);fill-opacity:1;" d="M 97.105469 58.464844 C 97.25 57.847656 97.859375 57.464844 98.476562 57.605469 C 99.089844 57.75 99.472656 58.363281 99.328125 58.980469 L 91.25 93.867188 C 90.488281 97.160156 87.222656 99.195312 83.945312 98.433594 C 80.667969 97.667969 78.632812 94.398438 79.394531 91.117188 L 86.785156 59.195312 C 86.929688 58.578125 87.539062 58.195312 88.15625 58.335938 C 88.769531 58.480469 89.152344 59.09375 89.007812 59.707031 L 81.617188 91.632812 C 81.140625 93.683594 82.410156 95.734375 84.460938 96.207031 C 86.507812 96.6875 88.550781 95.40625 89.023438 93.355469 L 97.105469 58.464844 "/>
<path style=" stroke:none;fill-rule:nonzero;fill:rgb(100%,100%,100%);fill-opacity:1;" d="M 60.054688 49.847656 C 60.195312 49.234375 59.816406 48.621094 59.199219 48.476562 C 58.585938 48.332031 57.972656 48.71875 57.832031 49.335938 L 49.75 84.226562 C 48.992188 87.511719 51.027344 90.78125 54.304688 91.542969 C 57.578125 92.304688 60.847656 90.261719 61.609375 86.976562 L 69 55.058594 C 69.144531 54.441406 68.761719 53.828125 68.144531 53.6875 C 67.53125 53.542969 66.917969 53.925781 66.777344 54.539062 L 59.382812 86.464844 C 58.910156 88.515625 56.867188 89.789062 54.816406 89.316406 C 52.769531 88.835938 51.5 86.792969 51.972656 84.742188 L 60.054688 49.847656 "/>
<path style=" stroke:none;fill-rule:nonzero;fill:rgb(99.21875%,94.509888%,80.389404%);fill-opacity:1;" d="M 118.617188 2.53125 C 118.730469 0.722656 115.648438 -0.199219 113.863281 0.0429688 C 111.109375 0.421875 108.804688 2.292969 108.695312 4.097656 C 108.582031 5.902344 110.734375 6.410156 113.480469 6.035156 C 117.324219 5.730469 118.503906 4.335938 118.617188 2.53125 "/>
<path style=" stroke:none;fill-rule:nonzero;fill:rgb(99.21875%,94.509888%,80.389404%);fill-opacity:1;" d="M 105.34375 11.058594 C 105.5 11.800781 106.855469 11.820312 107.546875 11.515625 C 108.621094 11.050781 109.328125 10.03125 109.167969 9.289062 C 109.007812 8.546875 108.082031 8.585938 107.015625 9.054688 C 105.496094 9.617188 105.183594 10.316406 105.34375 11.058594 "/>
<path style=" stroke:none;fill-rule:nonzero;fill:rgb(99.21875%,94.509888%,80.389404%);fill-opacity:1;" d="M 74.359375 32.019531 C 86.78125 22.726562 92.175781 10.765625 101.410156 12.914062 C 104.367188 13.601562 104.253906 17.484375 107.5625 16.691406 C 112.867188 14.011719 117.605469 10.417969 122.449219 13.109375 C 124.496094 14.371094 124.726562 16.769531 123.242188 16.421875 C 119.148438 15.46875 109.785156 23.957031 107.3125 34.628906 L 107.289062 34.726562 C 101.300781 38.285156 85.753906 36.316406 74.355469 32.019531 "/>
<path style="fill:none;stroke-width:20;stroke-linecap:round;stroke-linejoin:miter;stroke:rgb(100%,100%,100%);stroke-opacity:1;stroke-miterlimit:10;" d="M 1114.818075 1022.71864 C 1012.015678 933.636353 554.180425 1039.889276 501.084682 1165.106783 C 493.279505 1183.507555 541.651062 1206.982634 592.641462 1205.496221 " transform="matrix(0.0760713,0,0,-0.0762111,23.420897,111.997239)"/>
<g clip-path="url(#clip2)" clip-rule="nonzero">
<path style="fill:none;stroke-width:20;stroke-linecap:round;stroke-linejoin:miter;stroke:rgb(100%,100%,100%);stroke-opacity:1;stroke-miterlimit:10;" d="M 40.219788 727.486204 C 77.756527 888.992698 238.738304 989.40248 400.336278 951.883358 " transform="matrix(0.0760713,0,0,-0.0762111,23.420897,111.997239)"/>
</g>
<g clip-path="url(#clip3)" clip-rule="nonzero">
<path style="fill:none;stroke-width:20;stroke-linecap:round;stroke-linejoin:miter;stroke:rgb(100%,100%,100%);stroke-opacity:1;stroke-miterlimit:10;" d="M 49.976259 725.179701 C 87.461649 886.73745 248.494775 987.095976 410.041399 949.62811 " transform="matrix(0.0760713,0,0,-0.0762111,23.420897,111.997239)"/>
</g>
<path style=" stroke:none;fill-rule:nonzero;fill:rgb(100%,100%,100%);fill-opacity:1;" d="M 56.675781 30.714844 C 56.730469 33.859375 58.851562 37.871094 61.796875 38.949219 C 62.589844 39.234375 63.125 39.957031 62.9375 40.777344 C 62.746094 41.597656 61.898438 42.207031 61.113281 41.917969 C 58.164062 40.835938 55.871094 37.570312 55.644531 35.167969 L 56.675781 30.714844 "/>
<g clip-path="url(#clip4)" clip-rule="nonzero">
<path style=" stroke:none;fill-rule:nonzero;fill:rgb(76.078796%,79.60968%,82.348633%);fill-opacity:1;" d="M 180.730469 79.171875 L 169.789062 42.675781 C 179.855469 39.648438 190.449219 45.355469 193.46875 55.4375 C 196.5 65.527344 190.800781 76.140625 180.730469 79.171875 Z M 167.820312 36.105469 L 163.878906 22.96875 C 162.792969 19.335938 159.222656 17.917969 155.128906 17.644531 C 144.808594 16.949219 133.472656 19.585938 124.0625 24.667969 L 113.839844 32.566406 C 112.714844 34.300781 112.257812 36.230469 112.878906 38.320312 L 133.34375 106.5625 C 134.433594 110.191406 138 111.617188 142.09375 111.890625 C 155.0625 112.757812 169.628906 108.378906 179.976562 100.488281 C 183.238281 98.003906 185.429688 94.84375 184.34375 91.214844 L 182.699219 85.742188 C 196.390625 81.621094 204.144531 67.183594 200.027344 53.46875 C 195.921875 39.75 181.511719 31.988281 167.820312 36.105469 "/>
</g>
<path style=" stroke:none;fill-rule:nonzero;fill:rgb(99.21875%,94.509888%,80.389404%);fill-opacity:1;" d="M 150.164062 31.117188 C 131.691406 27.023438 121.1875 21.777344 114.699219 25.835938 C 110.003906 28.773438 113.824219 30.875 115.574219 36.710938 L 115.605469 36.808594 C 122.160156 40.160156 138.996094 36.660156 150.164062 31.121094 "/>
<path style=" stroke:none;fill-rule:nonzero;fill:rgb(100%,61.959839%,36.859131%);fill-opacity:1;" d="M 115.574219 36.710938 L 115.605469 36.808594 L 134.621094 100.207031 C 135.589844 103.4375 138.769531 105.023438 142.402344 105.269531 C 153.929688 106.039062 166.882812 102.144531 176.074219 95.132812 C 178.972656 92.921875 180.75 89.84375 179.785156 86.617188 L 165.558594 39.171875 C 164.953125 37.15625 162.859375 32.824219 158.050781 32.679688 C 155.273438 32.195312 152.652344 31.667969 150.164062 31.117188 L 150.164062 31.121094 C 138.996094 36.660156 122.160156 40.160156 115.605469 36.808594 "/>
<path style=" stroke:none;fill-rule:nonzero;fill:rgb(100%,100%,100%);fill-opacity:1;" d="M 117.277344 52.988281 C 129.738281 54.804688 142.851562 50.859375 155.3125 44.722656 C 156.121094 44.476562 156.574219 43.628906 156.332031 42.824219 L 156.324219 42.824219 C 156.089844 42.015625 155.246094 41.5625 154.4375 41.800781 C 141.976562 47.941406 128.863281 51.886719 116.402344 50.066406 L 117.277344 52.988281 "/>
<path style=" stroke:none;fill-rule:nonzero;fill:rgb(100%,100%,100%);fill-opacity:1;" d="M 143.058594 59.476562 C 142.875 58.871094 142.238281 58.527344 141.628906 58.710938 C 141.027344 58.894531 140.683594 59.53125 140.867188 60.132812 L 150.71875 92.984375 C 151.683594 96.207031 155.078125 98.035156 158.296875 97.066406 C 161.519531 96.09375 163.339844 92.691406 162.371094 89.46875 L 152.523438 56.625 C 152.347656 56.019531 151.707031 55.679688 151.105469 55.859375 C 150.496094 56.039062 150.15625 56.679688 150.339844 57.28125 L 160.191406 90.125 C 160.796875 92.144531 159.65625 94.269531 157.640625 94.871094 C 155.625 95.480469 153.511719 94.339844 152.902344 92.320312 L 143.058594 59.476562 "/>
<path style=" stroke:none;fill-rule:nonzero;fill:rgb(100%,100%,100%);fill-opacity:1;" d="M 127.28125 59.847656 C 127.097656 59.242188 126.460938 58.898438 125.859375 59.082031 C 125.257812 59.261719 124.90625 59.898438 125.097656 60.507812 L 135.382812 94.8125 C 136.347656 98.035156 139.742188 99.863281 142.960938 98.898438 C 146.183594 97.921875 148.003906 94.53125 147.035156 91.296875 L 137.625 59.917969 C 137.445312 59.3125 136.804688 58.96875 136.203125 59.148438 C 135.601562 59.332031 135.261719 59.96875 135.4375 60.574219 L 144.855469 91.960938 C 145.453125 93.972656 144.320312 96.097656 142.304688 96.710938 C 140.289062 97.3125 138.175781 96.167969 137.566406 94.15625 L 127.28125 59.847656 "/>
<path style=" stroke:none;fill-rule:nonzero;fill:rgb(100%,100%,100%);fill-opacity:1;" d="M 163.703125 48.882812 C 163.527344 48.277344 163.863281 47.644531 164.472656 47.457031 C 165.074219 47.277344 165.710938 47.621094 165.894531 48.226562 L 176.179688 82.535156 C 177.144531 85.757812 175.320312 89.15625 172.101562 90.125 C 168.875 91.09375 165.492188 89.261719 164.527344 86.039062 L 155.109375 54.652344 C 154.933594 54.050781 155.269531 53.414062 155.875 53.230469 C 156.476562 53.050781 157.117188 53.390625 157.296875 53.996094 L 166.707031 85.375 C 167.316406 87.394531 169.433594 88.539062 171.449219 87.9375 C 173.457031 87.328125 174.597656 85.203125 173.996094 83.1875 L 163.703125 48.882812 "/>
<path style="fill:none;stroke-width:20;stroke-linecap:round;stroke-linejoin:miter;stroke:rgb(100%,100%,100%);stroke-opacity:1;stroke-miterlimit:10;" d="M 1198.980478 994.528043 C 1202.780367 991.606472 1207.093754 988.941179 1211.81794 986.58342 C 1297.982986 942.606088 1519.300835 988.531134 1666.110053 1061.211619 C 1735.586399 1095.604147 1788.425393 1136.096096 1802.289852 1175.81921 C 1808.913983 1194.681282 1759.207329 1215.081024 1708.422328 1210.211739 " transform="matrix(0.0760713,0,0,-0.0762111,23.420897,111.997239)"/>
<g clip-path="url(#clip5)" clip-rule="nonzero">
<path style="fill:none;stroke-width:20;stroke-linecap:round;stroke-linejoin:miter;stroke:rgb(100%,100%,100%);stroke-opacity:1;stroke-miterlimit:10;" d="M 2280.613695 765.569138 C 2232.909685 924.410339 2065.817277 1014.312716 1906.992194 966.593724 " transform="matrix(0.0760713,0,0,-0.0762111,23.420897,111.997239)"/>
</g>
<path style=" stroke:none;fill-rule:nonzero;fill:rgb(100%,100%,100%);fill-opacity:1;" d="M 165.855469 29.574219 C 166.007812 32.710938 164.144531 36.847656 161.269531 38.117188 C 160.5 38.457031 160.007812 39.207031 160.257812 40.011719 C 160.492188 40.820312 161.375 41.375 162.144531 41.035156 C 165.019531 39.769531 167.105469 36.359375 167.171875 33.953125 L 165.855469 29.574219 "/>
</g>
</svg>
